<?xml version="1.0" encoding="utf-8"?>
<!-- Generator: Adobe Illustrator 18.0.0, SVG Export Plug-In . SVG Version: 6.00 Build 0)  -->
<!DOCTYPE svg PUBLIC "-//W3C//DTD SVG 1.1//EN" "http://www.w3.org/Graphics/SVG/1.1/DTD/svg11.dtd">
<svg version="1.1" id="Layer_1" xmlns="http://www.w3.org/2000/svg" xmlns:xlink="http://www.w3.org/1999/xlink" x="0px" y="0px"
	 viewBox="0 0 1280 300" enable-background="new 0 0 1280 300" xml:space="preserve">
<g>
	<g>
		<path fill="#424242" d="M530,290.1V81.4c7.3-1.8,17.7-2.7,31-2.7c11,0,18.6,4.6,22.8,13.8c4.2,9.2,6.3,26.4,6.3,51.6
			c0,25.2-2,42.4-6.1,51.6c-4.1,9.2-11.3,13.8-21.7,13.8c-7.2,0-14.1-0.9-20.8-2.7v83.5H530z M541.5,186.4h19.4
			c6.7-0.2,11.3-3.2,13.8-8.9c2.5-5.7,3.7-16.9,3.7-33.4c0-16.5-1.3-27.7-3.8-33.6c-2.5-5.8-7.1-8.8-13.7-8.8
			c-9.5,0-16,0.1-19.4,0.3V186.4z"/>
		<path fill="#424242" d="M665.2,224.8H628l-8.9,65.3h-11.9l29.1-201.4c0.5-4.8,2-7.3,4.3-7.3h12c2.4,0,3.8,2.4,4.3,7.3L686,290.1
			h-11.9L665.2,224.8z M662.1,201.8l-11.4-82.9c-0.8-5.2-1.5-10.9-2.2-16.9h-3.7l-2.2,16.9l-11.4,82.9H662.1z"/>
		<path fill="#424242" d="M737.9,216.9v73.2h-11.5v-73.5l-30-135.2h12.3l19,88c1,4.8,2.4,12.7,4.1,23.6h0.9
			c1.4-8.9,2.7-16.6,4.1-23.3l19-88.3h12.2L737.9,216.9z"/>
		<path fill="#424242" d="M867.3,81.4h13c3.1,0,4.7,3.7,4.7,11.2l3.8,197.5h-11.5L874,103.5h-2.8l-20.2,153.9c-0.7,6-2.4,9.1-5,9.1
			h-10.3c-2.7,0-4.5-3-5.2-9.1l-20.2-153.9h-2.6l-3.1,186.6h-11.5l3.5-197.5c0.2-7.5,1.8-11.2,4.8-11.2h13.1c2.4,0,4.1,3,4.8,9.1
			l16.9,127.3c0.5,3.6,1.2,9,2,16.2c0.8,7.2,1.3,11.1,1.4,11.9h2.4c0.3-2.2,0.8-6.6,1.5-13.2c0.7-6.5,1.4-11.7,1.9-15.6l16.9-126.7
			C863,84.4,864.7,81.4,867.3,81.4z"/>
		<path fill="#424242" d="M979.2,268l0.5,20.6c-8,1.2-20.9,1.8-38.7,1.8c-5.3,0-9.5-3.3-12.6-9.8c-3.1-6.5-4.7-15.4-4.8-26.5V117.4
			c0.1-11.1,1.7-19.9,4.8-26.5c3.1-6.5,7.3-9.8,12.6-9.8c17.8,0,30.7,0.6,38.7,1.8l-0.5,20.9H943c-5.2,0-7.9,6.7-7.9,20v45.4h39
			v21.5h-39v57.2c0,13.5,2.6,20.3,7.9,20.3H979.2z"/>
		<path fill="#424242" d="M1081.9,81.4v198.1c0,7.1-1.5,10.6-4.4,10.6h-11.3c-2.4,0-4.1-2.8-5.1-8.5l-30.5-147.9
			c-3-14.9-4.7-24.1-5.1-27.5h-2.1c0.3,8.1,0.5,17.2,0.5,27.5v156.3h-11.5V92c0-7.1,1.5-10.6,4.6-10.6h10.9c2.4,0,4.1,2.8,5.1,8.5
			l29.6,144.2c2.2,9.9,4.2,20,6.2,30.2h2.2c-0.3-10.9-0.4-21.5-0.4-31.8V81.4H1081.9z"/>
		<path fill="#424242" d="M1180.8,105h-29.2v185.1h-11.5V105H1111V81.4h69.8V105z"/>
		<path fill="#424242" d="M1242.3,201.8l-18.7-10.9c-6.4-3.6-10.9-10.1-13.7-19.5c-2.7-9.4-4.1-22.2-4.1-38.6
			c0-12.1,0.5-21.8,1.6-29.2c1.1-7.4,3-12.9,5.6-16.6c2.7-3.7,5.6-6.2,8.9-7.4c3.3-1.2,7.7-1.8,13.2-1.8c10.6,0.4,19.6,2.4,26.8,6
			l-0.8,19.4c-8.5-1-17-1.5-25.5-1.5c-3.8,0-6.7,0.2-8.5,0.6c-1.8,0.4-3.6,1.6-5.4,3.6c-1.7,2-2.9,5.2-3.5,9.5
			c-0.6,4.3-0.9,10.3-0.9,18c0,11.1,0.9,19,2.6,23.6c1.7,4.6,4.6,8.2,8.8,10.6l18.3,10.6c6.7,3.8,11.4,10.4,14.1,19.7
			c2.7,9.3,4.1,22.3,4.1,39c0,23-2.2,38.2-6.7,45.7c-4.5,7.5-12.3,11.2-23.5,11.2c-9.5,0-18.8-1.9-28-5.7l0.8-19.7
			c14.7,1.2,23.9,1.7,27.6,1.5c7.2,0,12-2.1,14.5-6.4c2.5-4.2,3.7-13.3,3.7-27.2c0-11.5-0.8-19.5-2.6-24
			C1249.5,207.7,1246.5,204.2,1242.3,201.8z"/>
	</g>
	<g>
		<path fill="#424242" d="M478.9,289.4H278.1v-40h209.2V281C487.4,285.6,483.6,289.4,478.9,289.4z"/>
		<rect x="278.1" y="6.8" fill="#424242" width="179.4" height="40"/>
		<path fill="#424242" d="M479.9,28.2V131h-41.4V46.8V6.5h19.1C469.9,6.5,479.9,16.2,479.9,28.2z"/>
		<rect x="278" y="165.8" fill="#424242" width="40" height="123.6"/>
		<path fill="#424242" d="M471.4,170.3H278.1v-40h201.7v31.6C479.9,166.6,476.1,170.3,471.4,170.3z"/>
	</g>
	<g>
		<g>
			<path fill="#424242" d="M13.3,257.2h39.2v-33.7H18.9c-3.1,0-5.6,2.5-5.6,5.6V257.2z"/>
		</g>
		<path fill="#424242" d="M21.7,290.1h195.9v-40H13.3v31.6C13.3,286.3,17,290.1,21.7,290.1z"/>
		<rect x="38.2" y="7.4" fill="#424242" width="179.4" height="40"/>
		<path fill="#424242" d="M15.9,29.7v106.5h41.4V48.9V7.2H38.2C25.9,7.2,15.9,17.3,15.9,29.7z"/>
		<rect x="177.8" y="166.5" fill="#424242" width="40" height="123.6"/>
		<path fill="#424242" d="M24.3,171h193.3v-40H15.9v31.6C15.9,167.2,19.7,171,24.3,171z"/>
	</g>
	<g>
		<line opacity="0.5" fill="#C7B299" stroke="#D6D6D6" stroke-miterlimit="10" x1="247.5" y1="48" x2="247.5" y2="258"/>
		<line opacity="0.5" fill="#C7B299" stroke="#D6D6D6" stroke-miterlimit="10" x1="101" y1="88.5" x2="395" y2="88.5"/>
		<line opacity="0.5" fill="none" stroke="#D6D6D6" stroke-miterlimit="10" x1="217.6" y1="7.4" x2="247.7" y2="47.9"/>
		<line opacity="0.5" fill="none" stroke="#D6D6D6" stroke-miterlimit="10" x1="278.1" y1="6.8" x2="247.7" y2="47.9"/>
		<line opacity="0.5" fill="none" stroke="#D6D6D6" stroke-miterlimit="10" x1="394.7" y1="88.9" x2="438.4" y2="46.8"/>
		<line opacity="0.5" fill="none" stroke="#D6D6D6" stroke-miterlimit="10" x1="394.7" y1="88.9" x2="438.4" y2="131"/>
		<line opacity="0.5" fill="none" stroke="#D6D6D6" stroke-miterlimit="10" x1="247.7" y1="257.9" x2="217.6" y2="290.1"/>
		<line opacity="0.5" fill="none" stroke="#D6D6D6" stroke-miterlimit="10" x1="247.7" y1="257.9" x2="278.1" y2="289.4"/>
		<line opacity="0.5" fill="none" stroke="#D6D6D6" stroke-miterlimit="10" x1="100.7" y1="88.9" x2="57.3" y2="47.2"/>
		<line opacity="0.5" fill="none" stroke="#D6D6D6" stroke-miterlimit="10" x1="100.7" y1="88.9" x2="57.3" y2="130.7"/>
	</g>
</g>
</svg>
