<?xml version="1.0" encoding="UTF-8" standalone="no"?>
<!-- Generator: Adobe Illustrator 18.0.0, SVG Export Plug-In . SVG Version: 6.00 Build 0)  -->
<!DOCTYPE svg  PUBLIC '-//W3C//DTD SVG 1.1//EN'  'http://www.w3.org/Graphics/SVG/1.1/DTD/svg11.dtd'>
<svg id="Layer_1" xmlns="http://www.w3.org/2000/svg" xml:space="preserve" viewBox="0 0 1280 300" version="1.1" y="0px" x="0px" xmlns:xlink="http://www.w3.org/1999/xlink" enable-background="new 0 0 1280 300">
	<g fill="#424242">
		<path d="m530 290.1v-208.7c7.3-1.8 17.7-2.7 31-2.7 11 0 18.6 4.6 22.8 13.8s6.3 26.4 6.3 51.6-2 42.4-6.1 51.6-11.3 13.8-21.7 13.8c-7.2 0-14.1-0.9-20.8-2.7v83.5h-11.5zm11.5-103.7h19.4c6.7-0.2 11.3-3.2 13.8-8.9s3.7-16.9 3.7-33.4-1.3-27.7-3.8-33.6c-2.5-5.8-7.1-8.8-13.7-8.8-9.5 0-16 0.1-19.4 0.3v84.4z"/>
		<path d="m665.2 224.8h-37.2l-8.9 65.3h-11.9l29.1-201.4c0.5-4.8 2-7.3 4.3-7.3h12c2.4 0 3.8 2.4 4.3 7.3l29.1 201.4h-11.9l-8.9-65.3zm-3.1-23l-11.4-82.9c-0.8-5.2-1.5-10.9-2.2-16.9h-3.7l-2.2 16.9-11.4 82.9h30.9z"/>
		<path d="m737.9 216.9v73.2h-11.5v-73.5l-30-135.2h12.3l19 88c1 4.8 2.4 12.7 4.1 23.6h0.9c1.4-8.9 2.7-16.6 4.1-23.3l19-88.3h12.2l-30.1 135.5z"/>
		<path d="m867.3 81.4h13c3.1 0 4.7 3.7 4.7 11.2l3.8 197.5h-11.5l-3.3-186.6h-2.8l-20.2 153.9c-0.7 6-2.4 9.1-5 9.1h-10.3c-2.7 0-4.5-3-5.2-9.1l-20.2-153.9h-2.6l-3.1 186.6h-11.5l3.5-197.5c0.2-7.5 1.8-11.2 4.8-11.2h13.1c2.4 0 4.1 3 4.8 9.1l16.9 127.3c0.5 3.6 1.2 9 2 16.2s1.3 11.1 1.4 11.9h2.4c0.3-2.2 0.8-6.6 1.5-13.2 0.7-6.5 1.4-11.7 1.9-15.6l16.9-126.7c0.7-6 2.4-9 5-9z"/>
		<path d="m979.2 268l0.5 20.6c-8 1.2-20.9 1.8-38.7 1.8-5.3 0-9.5-3.3-12.6-9.8s-4.7-15.4-4.8-26.5v-136.7c0.1-11.1 1.7-19.9 4.8-26.5 3.1-6.5 7.3-9.8 12.6-9.8 17.8 0 30.7 0.6 38.7 1.8l-0.5 20.9h-36.2c-5.2 0-7.9 6.7-7.9 20v45.4h39v21.5h-39v57.2c0 13.5 2.6 20.3 7.9 20.3h36.2z"/>
		<path d="m1081.9 81.4v198.1c0 7.1-1.5 10.6-4.4 10.6h-11.3c-2.4 0-4.1-2.8-5.1-8.5l-30.5-147.9c-3-14.9-4.7-24.1-5.1-27.5h-2.1c0.3 8.1 0.5 17.2 0.5 27.5v156.3h-11.5v-198c0-7.1 1.5-10.6 4.6-10.6h10.9c2.4 0 4.1 2.8 5.1 8.5l29.6 144.2c2.2 9.9 4.2 20 6.2 30.2h2.2c-0.3-10.9-0.4-21.5-0.4-31.8v-151.1h11.3z"/>
		<path d="m1180.8 105h-29.2v185.1h-11.5v-185.1h-29.1v-23.6h69.8v23.6z"/>
		<path d="m1242.3 201.8l-18.7-10.9c-6.4-3.6-10.9-10.1-13.7-19.5-2.7-9.4-4.1-22.2-4.1-38.6 0-12.1 0.5-21.8 1.6-29.2s3-12.9 5.6-16.6c2.7-3.7 5.6-6.2 8.9-7.4s7.7-1.8 13.2-1.8c10.6 0.4 19.6 2.4 26.8 6l-0.8 19.4c-8.5-1-17-1.5-25.5-1.5-3.8 0-6.7 0.2-8.5 0.6s-3.6 1.6-5.4 3.6c-1.7 2-2.9 5.2-3.5 9.5s-0.9 10.3-0.9 18c0 11.1 0.9 19 2.6 23.6s4.6 8.2 8.8 10.6l18.3 10.6c6.7 3.8 11.4 10.4 14.1 19.7s4.1 22.3 4.1 39c0 23-2.2 38.2-6.7 45.7s-12.3 11.2-23.5 11.2c-9.5 0-18.8-1.9-28-5.7l0.8-19.7c14.7 1.2 23.9 1.7 27.6 1.5 7.2 0 12-2.1 14.5-6.4 2.5-4.2 3.7-13.3 3.7-27.2 0-11.5-0.8-19.5-2.6-24-1.5-4.6-4.5-8.1-8.7-10.5z"/>
	</g>
	<g fill="#424242">
		<path d="m478.9 289.4h-200.8v-40h209.2v31.6c0.1 4.6-3.7 8.4-8.4 8.4z"/>
		<rect y="6.8" x="278.1" height="40" width="179.4"/>
		<path d="m479.9 28.2v102.8h-41.4v-124.5h19.1c12.3 0 22.3 9.7 22.3 21.7z"/>
		<rect y="165.8" x="278" height="123.6" width="40"/>
		<path d="m471.4 170.3h-193.3v-40h201.7v31.6c0.1 4.7-3.7 8.4-8.4 8.4z"/>
	</g>
			<path d="m13.3 257.2h39.2v-33.7h-33.6c-3.1 0-5.6 2.5-5.6 5.6v28.1z" fill="#424242"/>
		<path d="m21.7 290.1h195.9v-40h-204.3v31.6c0 4.6 3.7 8.4 8.4 8.4z" fill="#424242"/>
		<rect y="7.4" x="38.2" height="40" width="179.4" fill="#424242"/>
		<path d="m15.9 29.7v106.5h41.4v-129h-19.1c-12.3 0-22.3 10.1-22.3 22.5z" fill="#424242"/>
		<rect y="166.5" x="177.8" height="123.6" width="40" fill="#424242"/>
		<path d="m24.3 171h193.3v-40h-201.7v31.6c0 4.6 3.8 8.4 8.4 8.4z" fill="#424242"/>
	<g stroke="#D6D6D6" stroke-miterlimit="10">
		<line opacity=".5" y2="258" x2="247.5" y1="48" x1="247.5" fill="#C7B299"/>
		<line opacity=".5" y2="88.5" x2="395" y1="88.5" x1="101" fill="#C7B299"/>
		<line opacity=".5" y2="47.9" x2="247.7" y1="7.4" x1="217.6" fill="none"/>
		<line opacity=".5" y2="47.9" x2="247.7" y1="6.8" x1="278.1" fill="none"/>
		<line opacity=".5" y2="46.8" x2="438.4" y1="88.9" x1="394.7" fill="none"/>
		<line opacity=".5" y2="131" x2="438.4" y1="88.9" x1="394.7" fill="none"/>
		<line opacity=".5" y2="290.1" x2="217.6" y1="257.9" x1="247.7" fill="none"/>
		<line opacity=".5" y2="289.4" x2="278.1" y1="257.9" x1="247.7" fill="none"/>
		<line opacity=".5" y2="47.2" x2="57.3" y1="88.9" x1="100.7" fill="none"/>
		<line opacity=".5" y2="130.7" x2="57.3" y1="88.9" x1="100.7" fill="none"/>
	</g>
</svg>
