<?xml version="1.0" encoding="utf-8"?>
<!-- Generator: Adobe Illustrator 18.0.0, SVG Export Plug-In . SVG Version: 6.00 Build 0)  -->
<!DOCTYPE svg PUBLIC "-//W3C//DTD SVG 1.1//EN" "http://www.w3.org/Graphics/SVG/1.1/DTD/svg11.dtd">
<svg version="1.1" id="Layer_1" xmlns="http://www.w3.org/2000/svg" xmlns:xlink="http://www.w3.org/1999/xlink" x="0px" y="0px"
	 viewBox="0 0 1280 300" enable-background="new 0 0 1280 300" xml:space="preserve">
<g>
	<path fill="#424242" d="M508.3,266.4h-18v-142h37.2c6.9,0,12.4,1.6,16.4,4.8c4,3.2,6.9,8.3,8.7,15.3c1.8,7,2.7,16.7,2.7,29
		c0,17.4-2,30-6,37.6c-4,7.6-10.5,11.5-19.6,11.5h-21.4V266.4z M527.3,201c3.4,0,5.8-0.7,7.1-2c1.3-1.4,2-3.9,2-7.5v-34.3
		c0-3.6-0.7-6.1-2-7.5c-1.3-1.4-3.7-2-7.1-2h-19V201H527.3z"/>
	<path fill="#424242" d="M628.5,236.7h-32.9l-5.6,29.8h-18l26.2-142h27.5l26.2,142h-18L628.5,236.7z M624.5,215.3l-11.9-64.7h-1.3
		l-12,64.7H624.5z"/>
	<path fill="#424242" d="M735.9,124.4l-27.1,93.8v48.2h-18v-48.2l-27.1-93.8h18.7l17.4,64.7l17.3-64.7H735.9z"/>
	<path fill="#424242" d="M769.3,124.4h24l18.3,98.4h1l18.3-98.4h24l6,142H843l-4.1-102h-0.9l-18.9,102H805l-18.9-102h-0.9l-4.1,102
		h-17.9L769.3,124.4z"/>
	<path fill="#424242" d="M916.8,243.3h38.9v23.2h-56.9v-142h56.8l-2.2,23.2h-36.6v37h33.4v21.6h-33.4V243.3z"/>
	<path fill="#424242" d="M991.4,124.4h17.6l31.9,79.7c1.5,3.8,2.4,6.6,2.9,8.4c0.5,1.8,0.8,3.9,0.9,6.1h0.9v-94.3h18v142h-17.7
		l-31.8-79.7c-1.5-3.6-2.4-6.4-2.9-8.2s-0.8-3.9-1-6.4h-0.9v94.3h-18V124.4z"/>
	<path fill="#424242" d="M1135.6,266.4h-18V147.6h-23.3v-23.2h64.7v23.2h-23.4V266.4z"/>
	<path fill="#424242" d="M1199.7,245c5.2,1,10.2,1.5,15.1,1.5c5,0,10.1-0.5,15.4-1.4v-35.2l-13.8-1.8c-8.6-1.1-15.1-2.9-19.7-5.6
		c-4.5-2.6-7.7-6.7-9.6-12.3c-1.9-5.5-2.8-13.3-2.8-23.3c0-11.4,1-20.4,2.9-27c2-6.7,5.1-11.5,9.4-14.4c4.3-3,10.1-4.4,17.6-4.4
		c10.3,0,20.5,1.7,30.6,5l-2.2,22c-8.1-2.4-16.8-3.6-26.2-3.6c-4.9,0-9,0.4-12.4,1.1v35.7l14.9,1.6c7.8,0.9,13.9,2.9,18.4,5.9
		c4.4,3,7.6,7.5,9.6,13.4c2,5.9,2.9,13.9,2.9,24.1c0,10.8-1.1,19.3-3.4,25.7c-2.3,6.4-6,10.9-11,13.7c-5.1,2.8-11.9,4.2-20.5,4.2
		c-11.2,0-21.8-2-31.6-6.1l2.6-22.9C1189.9,242.6,1194.5,244,1199.7,245z"/>
</g>
<g>
	<path fill="#424242" d="M30,238.6h35v-26.1H35.6c-3.1,0-5.6,2.5-5.6,5.6V238.6z"/>
</g>
<path fill="#424242" d="M38.4,270H215v-35H30v26.6C30,266.2,33.8,270,38.4,270z"/>
<path fill="#424242" d="M35,50.4v96.3h35V67.8V30H53.9C43.4,30,35,39.1,35,50.4z"/>
<rect x="180" y="162.1" fill="#424242" width="35" height="105"/>
<path fill="#424242" d="M43.4,173H215v-35H35v26.6C35,169.2,38.8,173,43.4,173z"/>
<line opacity="0.5" fill="#C7B299" stroke="#D6D6D6" stroke-miterlimit="10" x1="245.5" y1="60" x2="245.5" y2="241"/>
<line opacity="0.5" fill="#C7B299" stroke="#D6D6D6" stroke-miterlimit="10" x1="107" y1="101.5" x2="382" y2="101.5"/>
<line opacity="0.5" fill="none" stroke="#D6D6D6" stroke-miterlimit="10" x1="382" y1="101.5" x2="420.3" y2="65.3"/>
<line opacity="0.5" fill="none" stroke="#D6D6D6" stroke-miterlimit="10" x1="382" y1="101.5" x2="419.8" y2="137.9"/>
<line opacity="0.5" fill="none" stroke="#D6D6D6" stroke-miterlimit="10" x1="245.5" y1="240.4" x2="215" y2="270"/>
<line opacity="0.5" fill="none" stroke="#D6D6D6" stroke-miterlimit="10" x1="245.2" y1="240.1" x2="275.2" y2="270.1"/>
<line opacity="0.5" fill="none" stroke="#D6D6D6" stroke-miterlimit="10" x1="107.3" y1="101.5" x2="69.5" y2="64.6"/>
<line opacity="0.5" fill="none" stroke="#D6D6D6" stroke-miterlimit="10" x1="107.3" y1="101.5" x2="70.3" y2="137.5"/>
<line opacity="0.5" fill="#C7B299" stroke="#D6D6D6" stroke-miterlimit="10" x1="215" y1="269.5" x2="275" y2="269.5"/>
<line opacity="0.5" fill="#C7B299" stroke="#D6D6D6" stroke-miterlimit="10" x1="215" y1="30.5" x2="275" y2="30.5"/>
<path fill="#424242" d="M451.6,270H275v-35h185v26.6C460,266.2,456.2,270,451.6,270z"/>
<rect x="275" y="30" fill="#424242" width="159.5" height="35"/>
<path fill="#424242" d="M455,51.5v101.7h-35V69.9V30h16.1C446.6,30,455,39.6,455,51.5z"/>
<rect x="275" y="139.6" fill="#424242" width="35" height="105"/>
<path fill="#424242" d="M446.6,173H275v-35h180v26.6C455,169.2,451.2,173,446.6,173z"/>
<rect x="56.4" y="30" fill="#424242" width="158.6" height="35"/>
<line opacity="0.5" fill="none" stroke="#D6D6D6" stroke-miterlimit="10" x1="245.5" y1="60.4" x2="275.2" y2="30.1"/>
<line opacity="0.5" fill="none" stroke="#D6D6D6" stroke-miterlimit="10" x1="245.5" y1="60.4" x2="215.5" y2="30.4"/>
</svg>
