<?xml version="1.0" encoding="utf-8"?>
<!-- Generator: Adobe Illustrator 18.0.0, SVG Export Plug-In . SVG Version: 6.00 Build 0)  -->
<!DOCTYPE svg PUBLIC "-//W3C//DTD SVG 1.1//EN" "http://www.w3.org/Graphics/SVG/1.1/DTD/svg11.dtd">
<svg version="1.1" id="Layer_1" xmlns="http://www.w3.org/2000/svg" xmlns:xlink="http://www.w3.org/1999/xlink" x="0px" y="0px"
	 viewBox="0 0 1280 300" enable-background="new 0 0 1280 300" xml:space="preserve">
<g>
	<path fill="#424242" d="M504.3,270.4h-18v-142h37.2c6.9,0,12.4,1.6,16.4,4.8c4,3.2,6.9,8.3,8.7,15.3c1.8,7,2.7,16.7,2.7,29
		c0,17.4-2,30-6,37.6c-4,7.6-10.5,11.5-19.6,11.5h-21.4V270.4z M523.3,205c3.4,0,5.8-0.7,7.1-2c1.3-1.4,2-3.9,2-7.5v-34.3
		c0-3.6-0.7-6.1-2-7.5c-1.3-1.4-3.7-2-7.1-2h-19V205H523.3z"/>
	<path fill="#424242" d="M624.5,240.7h-32.9l-5.6,29.8h-18l26.2-142h27.5l26.2,142h-18L624.5,240.7z M620.5,219.3l-11.9-64.7h-1.3
		l-12,64.7H620.5z"/>
	<path fill="#424242" d="M731.9,128.4l-27.1,93.8v48.2h-18v-48.2l-27.1-93.8h18.7l17.4,64.7l17.3-64.7H731.9z"/>
	<path fill="#424242" d="M765.3,128.4h24l18.3,98.4h1l18.3-98.4h24l6,142H839l-4.1-102h-0.9l-18.9,102H801l-18.9-102h-0.9l-4.1,102
		h-17.9L765.3,128.4z"/>
	<path fill="#424242" d="M912.8,247.3h38.9v23.2h-56.9v-142h56.8l-2.2,23.2h-36.6v37h33.4v21.6h-33.4V247.3z"/>
	<path fill="#424242" d="M987.4,128.4h17.6l31.9,79.7c1.5,3.8,2.4,6.6,2.9,8.4c0.5,1.8,0.8,3.9,0.9,6.1h0.9v-94.3h18v142h-17.7
		l-31.8-79.7c-1.5-3.6-2.4-6.4-2.9-8.2s-0.8-3.9-1-6.4h-0.9v94.3h-18V128.4z"/>
	<path fill="#424242" d="M1131.6,270.4h-18V151.6h-23.3v-23.2h64.7v23.2h-23.4V270.4z"/>
	<path fill="#424242" d="M1195.7,249c5.2,1,10.2,1.5,15.1,1.5c5,0,10.1-0.5,15.4-1.4v-35.2l-13.8-1.8c-8.6-1.1-15.1-2.9-19.7-5.6
		c-4.5-2.6-7.7-6.7-9.6-12.3c-1.9-5.5-2.8-13.3-2.8-23.3c0-11.4,1-20.4,2.9-27c2-6.7,5.1-11.5,9.4-14.4c4.3-3,10.1-4.4,17.6-4.4
		c10.3,0,20.5,1.7,30.6,5l-2.2,22c-8.1-2.4-16.8-3.6-26.2-3.6c-4.9,0-9,0.4-12.4,1.1v35.7l14.9,1.6c7.8,0.9,13.9,2.9,18.4,5.9
		c4.4,3,7.6,7.5,9.6,13.4c2,5.9,2.9,13.9,2.9,24.1c0,10.8-1.1,19.3-3.4,25.7c-2.3,6.4-6,10.9-11,13.7c-5.1,2.8-11.9,4.2-20.5,4.2
		c-11.2,0-21.8-2-31.6-6.1l2.6-22.9C1185.9,246.6,1190.5,248,1195.7,249z"/>
</g>
<g>
	<g>
		<path fill="#424242" d="M449.2,268.5H272.7v-34h184.9v25.6C457.6,264.8,453.8,268.5,449.2,268.5z"/>
		<rect x="272.7" y="28.3" fill="#424242" width="158.6" height="34"/>
		<path fill="#424242" d="M451,46.5v87.3h-36.6V62.3V28h16.9C442.1,28,451,36.3,451,46.5z"/>
		<rect x="272.5" y="163.5" fill="#424242" width="35.3" height="105"/>
		<path fill="#424242" d="M442.5,167.3H272.7v-34H451v25.6C451,163.5,447.2,167.3,442.5,167.3z"/>
	</g>
	<g>
		<g>
			<path fill="#424242" d="M38.6,235.1h34.7v-22.6H44.2c-3.1,0-5.6,2.5-5.6,5.6V235.1z"/>
		</g>
		<path fill="#424242" d="M47,269.1h172.2v-34H38.6v25.6C38.6,265.3,42.3,269.1,47,269.1z"/>
		<rect x="60.6" y="28.8" fill="#424242" width="158.6" height="34"/>
		<path fill="#424242" d="M40.9,47v86.7h36.6v-71v-34H60.6C49.7,28.6,40.9,36.8,40.9,47z"/>
		<rect x="184" y="164.1" fill="#424242" width="35.3" height="105"/>
		<path fill="#424242" d="M49.3,167.9h169.9v-34H40.9v25.6C40.9,164.1,44.6,167.9,49.3,167.9z"/>
	</g>
</g>
<line opacity="0.5" fill="#C7B299" stroke="#D6D6D6" stroke-miterlimit="10" x1="245.5" y1="63" x2="245.5" y2="242"/>
<line opacity="0.5" fill="#C7B299" stroke="#D6D6D6" stroke-miterlimit="10" x1="115" y1="97.5" x2="375" y2="97.5"/>
<line opacity="0.5" fill="none" stroke="#D6D6D6" stroke-miterlimit="10" x1="219.2" y1="28.8" x2="245.7" y2="63.2"/>
<line opacity="0.5" fill="none" stroke="#D6D6D6" stroke-miterlimit="10" x1="272.7" y1="28.3" x2="245.7" y2="63.2"/>
<line opacity="0.5" fill="none" stroke="#D6D6D6" stroke-miterlimit="10" x1="375.7" y1="98.1" x2="414.3" y2="62.3"/>
<line opacity="0.5" fill="none" stroke="#D6D6D6" stroke-miterlimit="10" x1="375.7" y1="98.1" x2="414.3" y2="133.9"/>
<line opacity="0.5" fill="none" stroke="#D6D6D6" stroke-miterlimit="10" x1="245.7" y1="241.7" x2="219.2" y2="269.1"/>
<line opacity="0.5" fill="none" stroke="#D6D6D6" stroke-miterlimit="10" x1="245.7" y1="241.7" x2="272.7" y2="268.5"/>
<line opacity="0.5" fill="none" stroke="#D6D6D6" stroke-miterlimit="10" x1="115.8" y1="98.1" x2="77.5" y2="62.6"/>
<line opacity="0.5" fill="none" stroke="#D6D6D6" stroke-miterlimit="10" x1="115.8" y1="98.1" x2="77.5" y2="133.7"/>
</svg>
