<?xml version="1.0" encoding="utf-8"?>
<!-- Generator: Adobe Illustrator 18.0.0, SVG Export Plug-In . SVG Version: 6.00 Build 0)  -->
<!DOCTYPE svg PUBLIC "-//W3C//DTD SVG 1.1//EN" "http://www.w3.org/Graphics/SVG/1.1/DTD/svg11.dtd">
<svg version="1.1" id="Layer_1" xmlns="http://www.w3.org/2000/svg" xmlns:xlink="http://www.w3.org/1999/xlink" x="0px" y="0px"
	 viewBox="0 0 200 200" enable-background="new 0 0 200 200" xml:space="preserve">
<path fill="#424242" d="M9.5,194.1H5v-38.2h9.3c1.7,0,3.1,0.4,4.1,1.3c1,0.9,1.7,2.2,2.2,4.1c0.5,1.9,0.7,4.5,0.7,7.8
	c0,4.7-0.5,8.1-1.5,10.1c-1,2.1-2.6,3.1-4.9,3.1H9.5V194.1z M14.3,176.5c0.9,0,1.4-0.2,1.8-0.6c0.3-0.4,0.5-1,0.5-2v-9.2
	c0-1-0.2-1.6-0.5-2c-0.3-0.4-0.9-0.5-1.8-0.5H9.5v14.4H14.3z"/>
<path fill="#424242" d="M39.6,186.1h-8.2l-1.4,8h-4.5l6.6-38.2h6.9l6.6,38.2h-4.5L39.6,186.1z M38.6,180.3l-3-17.4h-0.3l-3,17.4
	H38.6z"/>
<path fill="#424242" d="M66.4,155.9l-6.8,25.2v12.9h-4.5v-12.9l-6.8-25.2h4.7l4.4,17.4l4.3-17.4H66.4z"/>
<path fill="#424242" d="M74.8,155.9h6l4.6,26.4h0.3l4.6-26.4h6l1.5,38.2h-4.5l-1-27.4H92l-4.7,27.4h-3.6L79,166.7h-0.2l-1,27.4h-4.5
	L74.8,155.9z"/>
<path fill="#424242" d="M111.7,187.9h9.7v6.2h-14.2v-38.2h14.2l-0.5,6.2h-9.2v10h8.3v5.8h-8.3V187.9z"/>
<path fill="#424242" d="M130.4,155.9h4.4l8,21.4c0.4,1,0.6,1.8,0.7,2.3c0.1,0.5,0.2,1,0.2,1.6h0.2v-25.3h4.5v38.2H144l-7.9-21.4
	c-0.4-1-0.6-1.7-0.7-2.2c-0.1-0.5-0.2-1.1-0.2-1.7h-0.2v25.3h-4.5V155.9z"/>
<path fill="#424242" d="M166.4,194.1h-4.5v-31.9h-5.8v-6.2h16.2v6.2h-5.9V194.1z"/>
<path fill="#424242" d="M182.5,188.3c1.3,0.3,2.5,0.4,3.8,0.4c1.2,0,2.5-0.1,3.8-0.4v-9.5l-3.4-0.5c-2.1-0.3-3.8-0.8-4.9-1.5
	c-1.1-0.7-1.9-1.8-2.4-3.3c-0.5-1.5-0.7-3.6-0.7-6.3c0-3.1,0.2-5.5,0.7-7.3c0.5-1.8,1.3-3.1,2.3-3.9c1.1-0.8,2.5-1.2,4.4-1.2
	c2.6,0,5.1,0.4,7.7,1.3l-0.5,5.9c-2-0.7-4.2-1-6.6-1c-1.2,0-2.3,0.1-3.1,0.3v9.6l3.7,0.4c2,0.2,3.5,0.8,4.6,1.6
	c1.1,0.8,1.9,2,2.4,3.6c0.5,1.6,0.7,3.7,0.7,6.5c0,2.9-0.3,5.2-0.9,6.9c-0.6,1.7-1.5,2.9-2.8,3.7c-1.3,0.8-3,1.1-5.1,1.1
	c-2.8,0-5.4-0.5-7.9-1.6l0.7-6.2C180,187.7,181.2,188,182.5,188.3z"/>
<g>
	<path fill="#424242" d="M5.3,131h15.5v-15.8h-13c-1.4,0-2.5,1.5-2.5,3.4C5.3,118.6,5.3,131,5.3,131z"/>
</g>
<path fill="#424242" d="M9,149.9h78v-21.1H5.3v16.1C5.3,147.6,7,149.9,9,149.9z"/>
<path fill="#424242" d="M7.5,17.3v58.2H23V27.8V5h-7.1C11.2,5,7.5,10.5,7.5,17.3z"/>
<rect x="71.6" y="84.8" fill="#424242" width="15.5" height="63.4"/>
<path fill="#424242" d="M11.2,91.4H87V70.2H7.5v16.1C7.5,89.1,9.2,91.4,11.2,91.4z"/>
<line opacity="0.5" fill="none" stroke="#D6D6D6" stroke-miterlimit="10" enable-background="new    " x1="100.5" y1="23.1" x2="100.5" y2="132.4"/>
<line opacity="0.5" fill="none" stroke="#D6D6D6" stroke-miterlimit="10" enable-background="new    " x1="39.3" y1="48.2" x2="160.8" y2="48.2"/>
<line opacity="0.5" fill="none" stroke="#D6D6D6" stroke-miterlimit="10" enable-background="new    " x1="160.8" y1="48.2" x2="177.7" y2="26.3"/>
<line opacity="0.5" fill="none" stroke="#D6D6D6" stroke-miterlimit="10" enable-background="new    " x1="160.8" y1="48.2" x2="177.5" y2="70.2"/>
<line opacity="0.5" fill="none" stroke="#D6D6D6" stroke-miterlimit="10" enable-background="new    " x1="100.5" y1="132.1" x2="87" y2="149.9"/>
<line opacity="0.5" fill="none" stroke="#D6D6D6" stroke-miterlimit="10" enable-background="new    " x1="100.4" y1="131.9" x2="113.6" y2="150"/>
<line opacity="0.5" fill="none" stroke="#D6D6D6" stroke-miterlimit="10" enable-background="new    " x1="39.4" y1="48.2" x2="22.7" y2="25.9"/>
<line opacity="0.5" fill="none" stroke="#D6D6D6" stroke-miterlimit="10" enable-background="new    " x1="39.4" y1="48.2" x2="23.1" y2="69.9"/>
<line opacity="0.5" fill="none" stroke="#D6D6D6" stroke-miterlimit="10" enable-background="new    " x1="87.2" y1="149.9" x2="113.8" y2="149.9"/>
<line opacity="0.5" fill="none" stroke="#D6D6D6" stroke-miterlimit="10" enable-background="new    " x1="86.7" y1="5.8" x2="113.3" y2="5.8"/>
<path fill="#424242" d="M191.6,149.9h-78v-21.1h81.7v16.1C195.3,147.6,193.6,149.9,191.6,149.9z"/>
<rect x="113.5" y="5" fill="#424242" width="70.5" height="21.1"/>
<path fill="#424242" d="M193.1,18v61.4h-15.5V29.1V5h7.1C189.4,5,193.1,10.8,193.1,18z"/>
<rect x="113.5" y="71.2" fill="#424242" width="15.5" height="63.4"/>
<path fill="#424242" d="M189.4,91.4h-75.8V70.2h79.5v16.1C193.1,89.1,191.4,91.4,189.4,91.4z"/>
<rect x="16.9" y="5" fill="#424242" width="70.1" height="21.1"/>
<line opacity="0.5" fill="none" stroke="#D6D6D6" stroke-miterlimit="10" enable-background="new    " x1="100.5" y1="23.4" x2="113.6" y2="5.1"/>
<line opacity="0.5" fill="none" stroke="#D6D6D6" stroke-miterlimit="10" enable-background="new    " x1="100.5" y1="23.4" x2="87.2" y2="5.2"/>
</svg>
