<?xml version="1.0" encoding="utf-8"?>
<!-- Generator: Adobe Illustrator 18.0.0, SVG Export Plug-In . SVG Version: 6.00 Build 0)  -->
<!DOCTYPE svg PUBLIC "-//W3C//DTD SVG 1.1//EN" "http://www.w3.org/Graphics/SVG/1.1/DTD/svg11.dtd">
<svg version="1.1" id="Layer_1" xmlns="http://www.w3.org/2000/svg" xmlns:xlink="http://www.w3.org/1999/xlink" x="0px" y="0px"
	 viewBox="0 0 200 200" enable-background="new 0 0 200 200" xml:space="preserve">
<path fill="#424242" d="M191,158.4h-79v-22.3h87.5v13.9C199.5,154.6,195.7,158.4,191,158.4z"/>
<rect x="112" y="0.9" fill="#424242" width="75" height="22.3"/>
<path fill="#424242" d="M196.3,12.8v57.3H179V23.2V0.7h8C192.1,0.7,196.3,6.1,196.3,12.8z"/>
<rect x="111.9" y="89.5" fill="#424242" width="16.7" height="68.9"/>
<path fill="#424242" d="M187.9,92H112V69.7h84.3v13.9C196.3,88.2,192.5,92,187.9,92z"/>
<g>
	<path fill="#424242" d="M1.3,140.4h16.4v-18.8H6.9c-3.1,0-5.6,2.5-5.6,5.6V140.4z"/>
</g>
<path fill="#424242" d="M9.7,158.8h77v-22.3H1.3v13.9C1.3,155,5.1,158.8,9.7,158.8z"/>
<rect x="11.7" y="1.2" fill="#424242" width="75" height="22.3"/>
<path fill="#424242" d="M2.4,13.6V73h17.3V24.4V1.1h-8C6.6,1.1,2.4,6.7,2.4,13.6z"/>
<rect x="70.1" y="89.9" fill="#424242" width="16.7" height="68.9"/>
<path fill="#424242" d="M10.8,92.4h75.9V70.1H2.4V84C2.4,88.6,6.2,92.4,10.8,92.4z"/>
<line opacity="0.5" fill="#C7B299" stroke="#D6D6D6" stroke-miterlimit="10" x1="99.5" y1="24" x2="99.5" y2="141"/>
<line opacity="0.5" fill="#C7B299" stroke="#D6D6D6" stroke-miterlimit="10" x1="38" y1="46.5" x2="160" y2="46.5"/>
<line opacity="0.5" fill="none" stroke="#D6D6D6" stroke-miterlimit="10" x1="86.7" y1="1.2" x2="99.3" y2="23.8"/>
<line opacity="0.5" fill="none" stroke="#D6D6D6" stroke-miterlimit="10" x1="112" y1="0.9" x2="99.3" y2="23.8"/>
<line opacity="0.5" fill="none" stroke="#D6D6D6" stroke-miterlimit="10" x1="160.7" y1="46.6" x2="179" y2="23.2"/>
<line opacity="0.5" fill="none" stroke="#D6D6D6" stroke-miterlimit="10" x1="160.7" y1="46.6" x2="179" y2="70.1"/>
<line opacity="0.5" fill="none" stroke="#D6D6D6" stroke-miterlimit="10" x1="99.3" y1="140.8" x2="86.7" y2="158.8"/>
<line opacity="0.5" fill="none" stroke="#D6D6D6" stroke-miterlimit="10" x1="99.3" y1="140.8" x2="112" y2="158.4"/>
<line opacity="0.5" fill="none" stroke="#D6D6D6" stroke-miterlimit="10" x1="37.8" y1="46.6" x2="19.7" y2="23.4"/>
<line opacity="0.5" fill="none" stroke="#D6D6D6" stroke-miterlimit="10" x1="37.8" y1="46.6" x2="19.7" y2="69.9"/>
<path fill="#424242" d="M5.7,198.6H1V171h9.7c1.8,0,3.2,0.3,4.3,0.9c1,0.6,1.8,1.6,2.3,3c0.5,1.4,0.7,3.2,0.7,5.6
	c0,3.4-0.5,5.8-1.6,7.3c-1,1.5-2.7,2.2-5.1,2.2H5.7V198.6z M10.6,185.9c0.9,0,1.5-0.1,1.9-0.4c0.3-0.3,0.5-0.7,0.5-1.5v-6.6
	c0-0.7-0.2-1.2-0.5-1.5s-1-0.4-1.9-0.4h-5v10.3H10.6z"/>
<path fill="#424242" d="M37,192.8h-8.6l-1.4,5.8h-4.7l6.8-27.5h7.2l6.8,27.5h-4.7L37,192.8z M36,188.7l-3.1-12.5h-0.3l-3.1,12.5H36z
	"/>
<path fill="#424242" d="M65,171l-7.1,18.2v9.3h-4.7v-9.3L46.2,171h4.9l4.5,12.5l4.5-12.5H65z"/>
<path fill="#424242" d="M73.7,171H80l4.8,19.1H85l4.8-19.1H96l1.6,27.5h-4.7l-1.1-19.8h-0.2l-4.9,19.8H83l-4.9-19.8h-0.2l-1.1,19.8
	h-4.7L73.7,171z"/>
<path fill="#424242" d="M112.2,194.1h10.2v4.5h-14.8V171h14.8l-0.6,4.5h-9.5v7.2h8.7v4.2h-8.7V194.1z"/>
<path fill="#424242" d="M131.6,171h4.6l8.3,15.5c0.4,0.7,0.6,1.3,0.8,1.6c0.1,0.4,0.2,0.7,0.2,1.2h0.2V171h4.7v27.5h-4.6l-8.3-15.5
	c-0.4-0.7-0.6-1.2-0.7-1.6c-0.1-0.4-0.2-0.8-0.2-1.2h-0.2v18.3h-4.7V171z"/>
<path fill="#424242" d="M169.2,198.6h-4.7v-23h-6.1V171h16.9v4.5h-6.1V198.6z"/>
<path fill="#424242" d="M186,194.4c1.3,0.2,2.7,0.3,3.9,0.3c1.3,0,2.6-0.1,4-0.3v-6.8l-3.6-0.4c-2.2-0.2-4-0.6-5.1-1.1
	c-1.2-0.5-2-1.3-2.5-2.4c-0.5-1.1-0.7-2.6-0.7-4.5c0-2.2,0.3-3.9,0.8-5.2c0.5-1.3,1.3-2.2,2.4-2.8c1.1-0.6,2.6-0.9,4.6-0.9
	c2.7,0,5.4,0.3,8,1l-0.6,4.3c-2.1-0.5-4.4-0.7-6.8-0.7c-1.3,0-2.4,0.1-3.2,0.2v6.9l3.9,0.3c2,0.2,3.6,0.6,4.8,1.1
	c1.2,0.6,2,1.5,2.5,2.6c0.5,1.1,0.8,2.7,0.8,4.7c0,2.1-0.3,3.7-0.9,5c-0.6,1.2-1.6,2.1-2.9,2.7c-1.3,0.5-3.1,0.8-5.3,0.8
	c-2.9,0-5.7-0.4-8.2-1.2l0.7-4.4C183.4,193.9,184.6,194.2,186,194.4z"/>
</svg>
